<svg width="54" height="54" viewBox="0 0 54 54" fill="none" xmlns="http://www.w3.org/2000/svg">
<circle cx="27" cy="27" r="25" stroke="#3FC1BE" stroke-width="4"/>
<path fill-rule="evenodd" clip-rule="evenodd" d="M12.7429 34.2846C14.5792 32.4483 17.0698 31.4167 19.6667 31.4167H35.3333C37.9302 31.4167 40.4208 32.4483 42.2571 34.2846C44.0934 36.1209 45.125 38.6114 45.125 41.2084V45.125C45.125 46.2066 44.2482 47.0834 43.1667 47.0834C42.0851 47.0834 41.2083 46.2066 41.2083 45.125V41.2084C41.2083 39.6502 40.5894 38.1559 39.4876 37.0541C38.3858 35.9523 36.8915 35.3334 35.3333 35.3334H19.6667C18.1085 35.3334 16.6142 35.9523 15.5124 37.0541C14.4106 38.1559 13.7917 39.6502 13.7917 41.2084V45.125C13.7917 46.2066 12.9149 47.0834 11.8333 47.0834C10.7518 47.0834 9.875 46.2066 9.875 45.125V41.2084C9.875 38.6114 10.9066 36.1209 12.7429 34.2846Z" fill="#3FC1BE"/>
<path fill-rule="evenodd" clip-rule="evenodd" d="M27.4999 11.8334C24.2552 11.8334 21.6249 14.4637 21.6249 17.7084C21.6249 20.953 24.2552 23.5834 27.4999 23.5834C30.7446 23.5834 33.3749 20.953 33.3749 17.7084C33.3749 14.4637 30.7446 11.8334 27.4999 11.8334ZM17.7083 17.7084C17.7083 12.3006 22.0921 7.91669 27.4999 7.91669C32.9077 7.91669 37.2916 12.3006 37.2916 17.7084C37.2916 23.1161 32.9077 27.5 27.4999 27.5C22.0921 27.5 17.7083 23.1161 17.7083 17.7084Z" fill="#3FC1BE"/>
</svg>
