<svg width="54" height="54" viewBox="0 0 54 54" fill="none" xmlns="http://www.w3.org/2000/svg">
<circle cx="27" cy="27" r="25" stroke="#333333" stroke-width="4"/>
<path fill-rule="evenodd" clip-rule="evenodd" d="M12.7429 34.2847C14.5792 32.4484 17.0698 31.4167 19.6667 31.4167H35.3333C37.9302 31.4167 40.4208 32.4484 42.2571 34.2847C44.0934 36.121 45.125 38.6115 45.125 41.2084V45.1251C45.125 46.2066 44.2482 47.0834 43.1667 47.0834C42.0851 47.0834 41.2083 46.2066 41.2083 45.1251V41.2084C41.2083 39.6503 40.5894 38.1559 39.4876 37.0542C38.3858 35.9524 36.8915 35.3334 35.3333 35.3334H19.6667C18.1085 35.3334 16.6142 35.9524 15.5124 37.0542C14.4106 38.1559 13.7917 39.6503 13.7917 41.2084V45.1251C13.7917 46.2066 12.9149 47.0834 11.8333 47.0834C10.7518 47.0834 9.875 46.2066 9.875 45.1251V41.2084C9.875 38.6115 10.9066 36.121 12.7429 34.2847Z" fill="#333333"/>
<path fill-rule="evenodd" clip-rule="evenodd" d="M27.5 11.8334C24.2553 11.8334 21.625 14.4637 21.625 17.7084C21.625 20.9531 24.2553 23.5834 27.5 23.5834C30.7447 23.5834 33.375 20.9531 33.375 17.7084C33.375 14.4637 30.7447 11.8334 27.5 11.8334ZM17.7083 17.7084C17.7083 12.3006 22.0922 7.91675 27.5 7.91675C32.9078 7.91675 37.2916 12.3006 37.2916 17.7084C37.2916 23.1162 32.9078 27.5001 27.5 27.5001C22.0922 27.5001 17.7083 23.1162 17.7083 17.7084Z" fill="#333333"/>
</svg>
